#!OML:ASF E:\Steps\Project 1\Capture day 1\Session 2\Subject.ASF
:FULLY-SPECIFIED
:DEGREES
578
root 12.5559 18.0639 8.32494 -151.87 3.76293 175.068
lowerback -25.3433 -4.26461 -5.23388
upperback -1.0595 -3.75829 0.581174
thorax 13.4169 -1.88573 2.34093
lowerneck -0.285044 -0.00138864 -2.03559
upperneck 18.0602 0.886616 2.69484
head 5.46133 0.932161 1.2707
rclavicle -3.52346e-014 2.84262e-014
rhumerus -46.9184 -10.9872 -79.2555
rradius 33.8725
rwrist -4.67962
rhand -7.05165 -45.7278
rfingers 7.12502
rthumb 18.8211 -434.837
lclavicle -3.52346e-014 2.84262e-014
lhumerus -32.6936 3.52121 79.6596
lradius 29.1409
lwrist -1.90371
lhand -23.8918 -15.628
lfingers 7.12502
lthumb 2.58181 14.3362
rfemur -29.89 5.4178 17.764
rtibia 14.908
rfoot -21.7608 -5.8774
rtoes -37.9198
lfemur -28.4121 -8.75247 -24.4775
ltibia 10.4343
lfoot -7.23532 -0.637012
ltoes -33.186
579
root 12.5532 18.0675 8.31068 -152.286 3.94769 175.014
lowerback -25.0765 -4.25871 -5.28152
upperback -0.990178 -3.7761 0.61654
thorax 13.3588 -1.90783 2.40925
lowerneck -0.443373 -0.0467281 -2.06688
upperneck 18.0665 0.812326 2.69856
head 5.49185 0.889319 1.2743
rclavicle 1.89839e-014 6.36111e-015
rhumerus -46.9872 -10.8684 -79.3963
rradius 34.2515
rwrist -5.16357
rhand -7.44723 -44.9718
rfingers 7.12502
rthumb 18.4406 -434.118
lclavicle 1.89839e-014 6.36111e-015
lhumerus -32.5389 3.48132 79.8224
lradius 28.9197
lwrist -1.93968
lhand -23.9809 -15.3927
lfingers 7.12502
lthumb 2.49585 14.5725
rfemur -29.2736 5.64418 17.6392
rtibia 14.6826
rfoot -21.6887 -6.15739
rtoes -38.2356
lfemur -27.7776 -8.78967 -24.618
ltibia 10.2087
lfoot -7.31174 -0.432598
ltoes -32.7335
580
root 12.5565 18.0686 8.32807 -152.079 3.76608 174.922
lowerback -25.0034 -4.41336 -5.36646
upperback -1.1693 -3.95626 0.712072
thorax 13.1392 -1.98398 2.50992
lowerneck -0.534454 -0.10502 -2.03307
upperneck 18.151 0.737137 2.66569
head 5.53591 0.853908 1.25636
rclavicle -2.13694e-015 -7.7526e-015
rhumerus -46.9863 -11.0615 -79.3784
rradius 34.2856
rwrist -5.26174
rhand -7.88239 -45.727
rfingers 7.12502
rthumb 18.022 -434.912
lclavicle -2.13694e-015 -7.7526e-015
lhumerus -32.474 3.26675 79.9826
lradius 28.8519
lwrist -1.85904
lhand -23.8955 -14.9716
lfingers 7.12502
lthumb 2.57824 14.9926
rfemur -29.5601 5.75891 17.5129
rtibia 14.7398
rfoot -21.5908 -6.69756
rtoes -38.3799
lfemur -28.2688 -8.67732 -24.6516
ltibia 10.5506
lfoot -7.26214 -0.801363
ltoes -32.1091
581
root 12.5493 18.0726 8.31114 -152.561 4.18086 175.08
lowerback -24.8011 -4.19818 -5.16261
upperback -1.05119 -3.76065 0.678375
thorax 13.13 -1.89432 2.43046
lowerneck -0.59393 -0.116746 -1.95804
upperneck 18.1856 0.717931 2.65328
head 5.55754 0.848794 1.23973
rclavicle 2.38542e-015 1.03368e-014
rhumerus -46.9029 -11.3127 -79.4287
rradius 34.178
rwrist -5.47508
rhand -8.29389 -47.3023
rfingers 7.12502
rthumb 17.626 -436.523
lclavicle 2.38542e-015 1.03368e-014
lhumerus -32.3329 3.01727 80.0891
lradius 28.7338
lwrist -1.77797
lhand -23.713 -14.5821
lfingers 7.12502
lthumb 2.75455 15.3799
rfemur -28.9717 6.06477 17.5838
rtibia 14.6432
rfoot -21.5747 -6.58672
rtoes -38.6119
lfemur -27.4857 -8.65865 -24.603
ltibia 10.2064
lfoot -7.25626 -0.313411
ltoes -32.7191
582
root 12.5504 18.0719 8.3222 -152.449 4.26404 175.018
lowerback -24.8205 -4.17118 -5.19912
upperback -1.0138 -3.71012 0.635104
thorax 13.1792 -1.87449 2.41837
lowerneck -1.03443 -0.0703001 -1.82269
upperneck 17.9728 0.7173 2.66962
head 5.56591 0.837309 1.22052
rclavicle 2.03754e-014 8.34896e-015
rhumerus -46.5365 -11.5786 -79.7556
rradius 34.3251
rwrist -6.12126
rhand -9.04625 -48.6919
rfingers 7.12502
rthumb 16.9019 -437.976
lclavicle 2.03754e-014 8.34896e-015
lhumerus -31.8404 2.75215 80.1846
lradius 28.6061
lwrist -1.81061
lhand -23.6732 -14.4324
lfingers 7.12502
lthumb 2.79301 15.529
rfemur -29.1993 6.20292 17.4469
rtibia 14.7278
rfoot -21.6586 -6.69797
rtoes -38.9086
lfemur -27.7674 -8.45692 -24.7084
ltibia 10.4175
lfoot -7.26937 -0.47109
ltoes -33.0522
583
root 12.5492 18.0755 8.32772 -152.468 4.36597 175.11
lowerback -24.783 -4.22974 -5.12292
upperback -1.17786 -3.81328 0.749488
thorax 12.9795 -1.90885 2.47496
lowerneck -0.765354 0.0791079 -1.96811
upperneck 17.9402 0.941486 2.67805
head 5.50421 0.941911 1.25675
rclavicle -2.00773e-014 1.07344e-014
rhumerus -46.7582 -11.3357 -79.8743
rradius 34.6655
rwrist -6.53454
rhand -9.1356 -49.0708
rfingers 7.12502
rthumb 16.8159 -438.363
lclavicle -2.00773e-014 1.07344e-014
lhumerus -32.1845 2.79827 80.3176
lradius 28.8279
lwrist -1.95398
lhand -23.5633 -14.1966
lfingers 7.12502
lthumb 2.89912 15.7634
rfemur -29.2358 6.31808 17.4921
rtibia 14.7474
rfoot -21.7772 -6.62735
rtoes -38.9158
lfemur -27.8193 -8.35999 -24.6032
ltibia 10.5027
lfoot -7.28629 -0.378853
ltoes -33.0646
